{"title":"The Jungle Book (2016) 720p HDTC Dual Audio (Hindi-english)","uid":15244614,"size":1889748492,"categoryP":"video","categoryS":"movies","magnet":"?xt=urn:btih:65f79f15d1bb4564132a831b1e43d9eb84e70126&amp;dn=The+Jungle+Book+%282016%29+720p+HDTC+Dual+Audio+%28Hindi-english%29&amp;tr=udp%3A%2F%2Ftracker.leechers-paradise.org%3A6969&amp;tr=udp%3A%2F%2Fzer0day.ch%3A1337&amp;tr=udp%3A%2F%2Fopen.demonii.com%3A1337&amp;tr=udp%3A%2F%2Ftracker.coppersurfer.tk%3A6969&amp;tr=udp%3A%2F%2Fexodus.desync.com%3A6969","seeders":408,"leechers":31,"uploader":"4bh1j","files":1,"time":1467991529,"description":"General\r\nFile size : 1.76 GiB\r\nDuratio : 1h 45mn\r\nOverall bit rate : 2 390 Kbps\r\nMovie name : The Jungle Book (2016) 720p HDRip Dual Audio (Hindi cleaned - English) MSU\r\n\r\nVideo\r\nFormat : AVC\r\nFormat/Info : Advanced Video Codec\r\nFormat profile :   \r\nFormat settings, CABAC : Yes\r\nFormat settings, ReFrames : 4 frames\r\nCodec ID : V_MPEG4/ISO/AVC\r\nDuration : 1h 45mn\r\nBit rate : 2 075 Kbps\r\nWidth : 1 264 pixels\r\nHeight : 688 pixels\r\nDisplay aspect ratio : 1.85:1\r\nFrame rate mode : Constant\r\nFrame rate : 23.976 (24000/1001) fps\r\nColor space : YUV\r\nChroma subsampling : 4:2:0\r\nBit depth : 8 bits\r\nScan type : Progressive\r\nBits/(Pixel*Frame) : 0.100\r\nStream size : 1.53 GiB (87%)\r\nDefault : Yes\r\nForced : No\r\n\r\nAudio#1\r\nFormat : MPEG Audio\r\nFormat version : Version 1\r\nFormat profile : Layer 3\r\nMode : Joint stereo\r\nMode extension : MS Stereo\r\nCodec ID : A_MPEG/L3\r\nCodec ID/Hint : MP3\r\nDuration : 1h 45mn\r\nBit rate mode : Constant\r\nBit rate : 192 Kbps\r\nChannel(s) : 2 channels\r\nSampling rate : 44.1 KHz\r\nFrame rate : 38.276 fps (1152 spf)\r\nCompression mode : Lossy\r\nDelay relative to video : 25ms\r\nStream size : 144 MiB (8%)\r\nTitle : English MP3 192 Kbps [IamBidyuT]\r\nLanguage : English\r\nDefault : No\r\nForced : No\r\n\r\nAudio #2\r\nFormat : AAC\r\nFormat/Info : Advanced Audio Codec\r\nFormat profile : HE-AAC / LC\r\nCodec ID : A_AAC\r\nDuration : 1h 45mn\r\nBit rate : 119 Kbps\r\nChannel(s) : 2 channels\r\nChannel positions : Front: L R\r\nSampling rate : 44.1 KHz / 22.05 KHz\r\nFrame rate : 21.533 fps (1024 spf)\r\nCompression mode : Lossy\r\nDelay relative to video : 211ms\r\nStream size : 90.0 MiB (5%)\r\nTitle : Hindi AAC 119 Kbps [IamBidyuT]\r\nLanguage : Hindi\r\nDefault : Yes\r\nForced : Yes","torrent":{"xt":"urn:btih:65f79f15d1bb4564132a831b1e43d9eb84e70126","amp;dn":"The+Jungle+Book+%282016%29+720p+HDTC+Dual+Audio+%28Hindi-english%29","amp;tr":["udp%3A%2F%2Ftracker.leechers-paradise.org%3A6969","udp%3A%2F%2Fzer0day.ch%3A1337","udp%3A%2F%2Fopen.demonii.com%3A1337","udp%3A%2F%2Ftracker.coppersurfer.tk%3A6969","udp%3A%2F%2Fexodus.desync.com%3A6969"],"infoHash":"65f79f15d1bb4564132a831b1e43d9eb84e70126","infoHashBuffer":{"type":"Buffer","data":[101,247,159,21,209,187,69,100,19,42,131,27,30,67,217,235,132,231,1,38]},"announce":[],"urlList":[]}}